<svg
    xmlns="http://www.w3.org/2000/svg"
    viewBox="0 0 24 24"
    id="vector">
    <path
        id="path"
        d="M 19 3 L 5 3 C 3.9 3 3 3.9 3 5 L 3 19 C 3 20.1 3.9 21 5 21 L 19 21 C 20.1 21 21 20.1 21 19 L 21 5 C 21 3.9 20.1 3 19 3 Z M 12 6 C 13.93 6 15.5 7.57 15.5 9.5 C 15.5 11.43 13.93 13 12 13 C 10.07 13 8.5 11.43 8.5 9.5 C 8.5 7.57 10.07 6 12 6 Z M 19 19 L 5 19 L 5 18.77 C 5 18.15 5.28 17.57 5.76 17.19 C 7.47 15.82 9.64 15 12 15 C 14.36 15 16.53 15.82 18.24 17.19 C 18.72 17.57 19 18.16 19 18.77 L 19 19 Z"
        fill="#caba9c"/>
</svg>
