<svg
    xmlns="http://www.w3.org/2000/svg"
    viewBox="0 0 24 24"
    id="vector">
    <path
        id="path"
        d="M 20 2 L 8 2 C 6.9 2 6 2.9 6 4 L 6 16 C 6 17.1 6.9 18 8 18 L 20 18 C 21.1 18 22 17.1 22 16 L 22 4 C 22 2.9 21.1 2 20 2 Z M 18 7 L 15 7 L 15 12.5 C 15 13.88 13.88 15 12.5 15 C 11.12 15 10 13.88 10 12.5 C 10 11.12 11.12 10 12.5 10 C 13.07 10 13.58 10.19 14 10.51 L 14 5 L 18 5 L 18 7 Z M 4 6 L 2 6 L 2 20 C 2 21.1 2.9 22 4 22 L 18 22 L 18 20 L 4 20 L 4 6 Z"
        fill="#caba9c"/>
</svg>
